<svg width="30" height="30" viewBox="0 0 30 30" fill="none" xmlns="http://www.w3.org/2000/svg">
<path d="M11.9617 21.9108L12.426 21.3218L11.9617 21.9108ZM15 8.50057L14.4596 9.02067C14.601 9.16757 14.7961 9.25057 15 9.25057C15.2039 9.25057 15.399 9.16757 15.5404 9.02067L15 8.50057ZM18.0383 21.9108L18.5026 22.4998L18.0383 21.9108ZM12.426 21.3218C10.9104 20.127 9.25307 18.9602 7.93829 17.4797C6.64922 16.0282 5.75 14.3344 5.75 12.137H4.25C4.25 14.8026 5.3605 16.836 6.81672 18.4757C8.24723 20.0865 10.0708 21.3752 11.4974 22.4998L12.426 21.3218ZM5.75 12.137C5.75 9.98617 6.96537 8.18246 8.62436 7.42413C10.2361 6.68741 12.4017 6.88251 14.4596 9.02067L15.5404 7.98047C13.0985 5.44346 10.2641 5.02533 8.00076 6.0599C5.78471 7.07286 4.25 9.42497 4.25 12.137H5.75ZM11.4974 22.4998C12.0097 22.9036 12.5595 23.3342 13.1168 23.6599C13.6739 23.9854 14.3096 24.2499 15 24.2499V22.7499C14.6904 22.7499 14.3261 22.6292 13.8736 22.3648C13.4213 22.1005 12.9521 21.7365 12.426 21.3218L11.4974 22.4998ZM18.5026 22.4998C19.9292 21.3752 21.7528 20.0865 23.1833 18.4757C24.6395 16.836 25.75 14.8026 25.75 12.137H24.25C24.25 14.3344 23.3508 16.0282 22.0617 17.4797C20.7469 18.9602 19.0896 20.127 17.574 21.3218L18.5026 22.4998ZM25.75 12.137C25.75 9.42497 24.2153 7.07286 21.9992 6.0599C19.7359 5.02533 16.9015 5.44346 14.4596 7.98047L15.5404 9.02067C17.5983 6.88251 19.7639 6.68741 21.3756 7.42413C23.0346 8.18246 24.25 9.98617 24.25 12.137H25.75ZM17.574 21.3218C17.0479 21.7365 16.5787 22.1005 16.1264 22.3648C15.6739 22.6292 15.3096 22.7499 15 22.7499V24.2499C15.6904 24.2499 16.3261 23.9854 16.8832 23.6599C17.4405 23.3342 17.9903 22.9036 18.5026 22.4998L17.574 21.3218Z" fill="#1C274C"/>
</svg>
